<svg width="43" height="12" viewBox="0 0 43 12" fill="none" xmlns="http://www.w3.org/2000/svg">
<path d="M33.014 9.69445C35.4996 7.97386 38.371 7.21352 41.2806 6.63416C42.6577 6.36031 43.0736 4.9706 41.6631 4.2962C41.2275 4.08825 40.7301 4.06628 40.2694 3.93472C36.6024 3.05419 33.0202 1.85916 29.4642 0.597846C29.254 0.52394 29.1282 0.848553 29.3182 0.960636C30.4767 1.67179 34.4364 4.50186 37.3013 4.44324C29.2479 4.60899 22.4051 3.66565 14.977 3.52356C6.0835 3.17707 3.72047 3.10594 0.147544 2.98413C-0.00598153 2.96862 -0.0637678 3.21385 0.0919357 3.24085C2.81398 3.80386 5.90998 4.97472 14.8206 5.5317C22.7128 6.02545 28.8566 6.09526 35.7193 5.97629C33.1787 6.02076 30.9262 9.92899 30.1401 11.2708C29.9883 11.5287 30.3605 11.7162 30.5568 11.5604C31.3893 10.9103 32.1908 10.2592 33.014 9.69445Z" fill="white"/>
<path d="M21.223 1.49614C16.1139 1.94648 10.9825 1.63316 5.98965 0.566021C5.86897 0.554521 5.88662 0.356733 6.01117 0.368602C11.1064 0.312974 16.1922 0.623626 21.2315 1.29828C21.3586 1.3015 21.3413 1.49914 21.223 1.49614Z" fill="white"/>
<path d="M3.81608 0.564354C3.48279 0.549525 3.15811 0.45988 2.86486 0.301731C2.76654 0.249953 2.79574 0.0878006 2.90604 0.0713915C3.29839 0.0341085 4.52767 -0.121165 4.83112 0.191868C5.14018 0.510685 3.93404 0.569603 3.81608 0.564354Z" fill="white"/>
</svg>
