<svg width="483" height="50" viewBox="0 0 483 50" fill="none" xmlns="http://www.w3.org/2000/svg">
<path d="M87.9269 49.3979C62.7339 47.8952 42.1215 39.8495 34.9644 36.0145C34.9644 33.6665 56.1971 42.589 83.8712 44.9367C119.657 47.9727 143.991 46.8151 142.798 47.5195C141.605 48.2239 119.418 51.2762 87.9269 49.3979Z" fill="#414854"/>
<path d="M155.681 43.528C150.719 43.7158 149.478 44.9367 149.955 45.6411C150.432 46.3455 151.196 46.5333 156.158 46.3455C161.12 46.1577 162.361 44.9367 162.361 43.9975C162.361 43.0584 160.643 43.3401 155.681 43.528Z" fill="#414854"/>
<path fill-rule="evenodd" clip-rule="evenodd" d="M133.494 27.5619C68.4118 29.8159 17.2306 11.1261 0.133074 1.96905C-2.49102 3.37783 33.7714 24.0399 102.002 31.0838C144.283 35.4486 201.221 28.2732 258.851 21.0104C294.223 16.5528 329.856 12.0622 362.521 10.1869C398.856 8.10088 419.048 9.84093 430.513 13.6083C412.318 25.3343 434.883 42.2785 448.406 28.7358C453.106 24.0289 449.211 17.5827 444.589 13.2393C446.394 12.9798 452.597 10.2495 460.096 9.48537C471.137 8.36028 483.139 9.95212 482.999 8.77814C482.634 5.72579 451.211 6.49409 441.825 9.48537C430.46 3.42016 409.763 -0.669071 383.515 0.0907207C361.968 0.714423 326.44 5.61812 286.474 11.1343C236.167 18.0778 178.829 25.9917 133.494 27.5619ZM436.237 16.2879C443.104 19.6159 446.836 28.432 436.237 27.9513C425.779 27.477 428.723 19.1224 436.237 16.2879Z" fill="#414854"/>
</svg>
