<svg width="1920" height="1419" viewBox="0 0 1920 1419" fill="none" xmlns="http://www.w3.org/2000/svg">
<g style="mix-blend-mode:color-dodge" opacity="0.2">
<path d="M1166.95 609.961C1172.07 613.649 1177.89 616.262 1184.06 617.645C1190.22 619.028 1196.6 619.152 1202.81 618.009C1217.52 615.511 1228.13 606.7 1226.47 599.069C1224.8 591.438 1209.06 586.72 1205.66 579.089C1202.26 571.458 1202.67 558.277 1194.14 551.964C1185.61 545.65 1167.57 566.602 1162.78 578.812C1158 591.022 1157.23 601.15 1166.95 609.961Z" fill="#1B8B55"/>
<path d="M1128.44 572.846C1127.82 578.326 1133.72 583.044 1141.55 583.46C1149.39 583.876 1156.12 579.714 1156.68 574.164C1157.23 568.614 1151.48 563.896 1143.71 563.549C1135.94 563.203 1129.07 567.365 1128.44 572.846Z" fill="#1B8B55"/>
<path d="M1167.36 620.506C1161.88 615.927 1151.96 618.564 1145.44 626.681C1138.92 634.797 1137.88 644.857 1143.36 649.297C1148.84 653.737 1158.55 650.892 1165.07 642.914C1171.59 634.936 1172.77 625.085 1167.36 620.506Z" fill="#1B8B55"/>
<path d="M1178.46 637.225C1176.03 644.51 1178.46 651.864 1183.8 653.251C1189.15 654.639 1195.18 649.921 1197.68 642.567C1200.18 635.214 1197.68 628.068 1192.48 626.611C1187.27 625.154 1180.82 629.872 1178.46 637.225Z" fill="#1B8B55"/>
<path d="M1131.29 594.352C1121.71 598.306 1115.89 607.047 1118.31 613.707C1120.74 620.367 1130.45 622.657 1140.03 618.702C1149.6 614.748 1155.43 606.354 1153.14 599.694C1150.85 593.034 1141 590.536 1131.29 594.352Z" fill="#1B8B55"/>
<path d="M1798.74 180.391C1798.57 186.709 1799.66 192.997 1801.96 198.884C1804.26 204.771 1807.72 210.136 1812.13 214.662C1822.47 225.416 1835.65 229.301 1841.06 223.681C1846.47 218.062 1841.62 202.314 1845.85 195.099C1850.08 187.884 1861.53 181.224 1862.01 170.401C1862.5 159.579 1834.96 156.526 1822.19 159.301C1809.43 162.076 1800.69 167.418 1798.74 180.391Z" fill="#1B8B55"/>
<path d="M1808.04 127.736C1803.18 130.302 1802.56 137.795 1806.58 144.524C1807.98 147.459 1810.36 149.81 1813.32 151.167C1816.27 152.523 1819.61 152.8 1822.75 151.947C1827.6 149.381 1828.37 141.888 1824.27 135.159C1822.87 132.209 1820.48 129.848 1817.51 128.49C1814.54 127.132 1811.19 126.865 1808.04 127.736Z" fill="#1B8B55"/>
<path d="M1790.28 186.635C1791.04 179.698 1783.34 172.76 1772.87 171.858C1762.39 170.956 1753.65 175.813 1752.96 182.75C1752.26 189.688 1759.89 196.209 1770.37 197.18C1780.84 198.151 1789.52 193.711 1790.28 186.635Z" fill="#1B8B55"/>
<path d="M1782.58 205.227C1775.23 207.239 1770.58 213.552 1772.31 218.547C1773.94 221.298 1776.51 223.363 1779.55 224.359C1782.59 225.354 1785.88 225.212 1788.82 223.959C1796.25 221.808 1800.89 215.911 1799.16 210.708C1797.54 207.929 1794.96 205.838 1791.91 204.828C1788.85 203.819 1785.54 203.961 1782.58 205.227Z" fill="#1B8B55"/>
<path d="M1791.81 142.096C1783.2 136.407 1772.73 136.407 1768.5 142.096C1764.26 147.785 1767.87 157.151 1776.47 162.909C1785.08 168.667 1795.34 168.806 1799.58 162.909C1803.81 157.012 1800.41 148.062 1791.81 142.096Z" fill="#1B8B55"/>
<path d="M737.306 999.71C731.019 1000.3 724.916 1002.15 719.361 1005.16C713.806 1008.16 708.914 1012.25 704.978 1017.19C695.543 1028.78 693.323 1042.38 699.636 1047.02C705.949 1051.67 720.865 1044.94 728.565 1048.27C736.266 1051.6 744.521 1062.15 755.066 1061.18C765.611 1060.2 765.542 1032.66 761.102 1020.31C756.662 1007.97 750.418 999.987 737.306 999.71Z" fill="#1B8B55"/>
<path d="M790.725 1002.42C787.534 997.837 780.041 998.184 773.867 1002.97C771.123 1004.73 769.084 1007.39 768.108 1010.5C767.131 1013.61 767.279 1016.96 768.525 1019.97C771.716 1024.48 779.209 1024.27 785.314 1019.41C788.07 1017.67 790.123 1015.01 791.113 1011.9C792.102 1008.79 791.965 1005.43 790.725 1002.42Z" fill="#1B8B55"/>
<path d="M730.091 992.009C737.029 992.009 742.926 983.407 742.509 972.931C742.093 962.456 736.266 954.339 729.259 954.547C722.252 954.755 716.702 963.288 717.049 973.625C717.396 983.962 722.946 992.148 730.091 992.009Z" fill="#1B8B55"/>
<path d="M710.666 986.737C707.683 979.8 700.884 975.845 696.167 978.204C693.623 980.151 691.879 982.962 691.266 986.106C690.652 989.25 691.211 992.51 692.837 995.27C695.889 1002.21 702.341 1006.16 707.267 1003.87C709.84 1001.93 711.609 999.114 712.236 995.953C712.863 992.793 712.304 989.512 710.666 986.737Z" fill="#1B8B55"/>
<path d="M774.422 988.055C779.001 978.759 777.682 968.353 771.439 964.884C765.195 961.415 756.454 966.202 751.875 975.36C747.296 984.517 748.337 994.854 754.442 998.323C760.547 1001.79 769.635 997.282 774.422 988.055Z" fill="#1B8B55"/>
<path d="M98.0849 698.276C91.9297 699.69 86.1223 702.329 81.009 706.036C75.8957 709.743 71.5813 714.441 68.3231 719.851C60.4837 732.616 60.0674 746.353 66.9356 750.168C73.8037 753.984 87.7481 745.243 95.7956 747.532C103.843 749.821 113.417 759.118 123.546 756.898C133.674 754.678 130.136 727.205 124.17 715.273C118.204 703.34 111.058 696.819 98.0849 698.276Z" fill="#1B8B55"/>
<path d="M151.365 693.905C147.619 689.812 140.196 691.13 134.715 696.749C132.172 698.797 130.461 701.7 129.899 704.916C129.337 708.132 129.964 711.443 131.662 714.232C135.409 718.325 142.832 717.076 148.243 711.457C150.742 709.364 152.425 706.458 152.996 703.249C153.567 700.039 152.989 696.731 151.365 693.905Z" fill="#1B8B55"/>
<path d="M89.8294 691.615C96.7669 690.575 101.484 681.348 99.6806 670.803C97.8769 660.258 91.0088 653.182 84.0713 654.292C77.1338 655.402 72.8325 664.629 74.4975 675.104C76.1625 685.58 82.8225 692.725 89.8294 691.615Z" fill="#1B8B55"/>
<path d="M69.9188 689.188C66.0338 682.25 58.8188 679.683 54.3788 682.666C52.1453 684.947 50.8102 687.957 50.619 691.144C50.4278 694.33 51.3934 697.479 53.3382 700.01C57.2925 706.601 64.23 709.584 68.8088 706.601C71.1118 704.348 72.4995 701.322 72.7044 698.107C72.9094 694.892 71.9171 691.715 69.9188 689.188Z" fill="#1B8B55"/>
<path d="M133.328 681.834C136.658 672.052 133.952 661.923 127.292 659.287C120.632 656.65 112.584 662.547 109.254 672.26C105.924 681.972 108.353 692.032 114.874 694.668C121.395 697.304 129.72 691.615 133.328 681.834Z" fill="#1B8B55"/>
<path d="M365.456 509.229C365.204 502.911 363.686 496.709 360.993 490.989C358.3 485.269 354.486 480.148 349.778 475.929C338.747 465.869 325.288 462.886 320.293 468.991C315.298 475.096 321.195 490.289 317.449 497.782C313.703 505.274 302.811 512.975 303.019 523.589C303.227 534.204 330.769 535.591 343.534 531.845C356.299 528.099 364.416 522.271 365.456 509.229Z" fill="#1B8B55"/>
<path d="M359.768 562.37C364.485 559.456 364.554 551.894 360.114 545.512C358.52 542.674 355.979 540.486 352.936 539.332C349.892 538.178 346.539 538.131 343.464 539.199C338.747 542.112 338.539 549.674 343.048 556.057C344.644 558.91 347.197 561.109 350.256 562.264C353.315 563.419 356.684 563.456 359.768 562.37Z" fill="#1B8B55"/>
<path d="M373.504 502.361C373.504 509.298 381.412 515.681 391.819 516.236C402.225 516.791 410.758 511.033 410.966 504.026C411.174 497.019 402.919 490.983 392.582 490.706C382.245 490.428 373.781 495.284 373.504 502.361Z" fill="#1B8B55"/>
<path d="M379.886 483.352C386.824 480.715 391.333 474.194 389.182 469.477C387.376 466.852 384.676 464.974 381.586 464.196C378.496 463.417 375.229 463.79 372.394 465.245C365.456 467.881 360.877 474.125 362.959 479.12C364.77 481.779 367.495 483.68 370.616 484.46C373.738 485.24 377.037 484.846 379.886 483.352Z" fill="#1B8B55"/>
<path d="M375.03 546.899C383.979 552.033 394.455 551.27 398.271 545.234C402.086 539.199 397.854 530.18 388.905 525.046C379.956 519.913 369.688 520.468 365.803 526.364C361.918 532.261 366.011 541.558 375.03 546.899Z" fill="#1B8B55"/>
<path d="M1810.54 835.43C1806.06 830.934 1800.73 827.387 1794.85 825.003C1788.98 822.619 1782.68 821.446 1776.34 821.555C1761.42 821.555 1749.56 828.492 1749.97 836.609C1750.39 844.726 1765.31 851.525 1767.66 859.572C1770.02 867.62 1767.66 880.385 1774.6 888.224C1781.54 896.064 1803.11 877.887 1809.77 866.579C1816.43 855.271 1818.72 845.697 1810.54 835.43Z" fill="#1B8B55"/>
<path d="M1842.73 878.096C1844.18 872.754 1839.12 867.204 1831.49 865.608C1828.37 864.646 1825.01 864.814 1822 866.083C1819 867.352 1816.53 869.64 1815.05 872.546C1813.59 877.888 1818.58 883.507 1826.22 885.103C1829.35 886.078 1832.73 885.909 1835.76 884.626C1838.78 883.343 1841.25 881.029 1842.73 878.096Z" fill="#1B8B55"/>
<path d="M1811.72 824.955C1816.43 830.366 1826.63 829.256 1834.33 822.249C1842.03 815.242 1844.6 805.529 1839.95 800.257C1835.3 794.984 1825.18 796.303 1817.48 803.171C1809.77 810.039 1807.07 819.613 1811.72 824.955Z" fill="#1B8B55"/>
<path d="M1803.32 806.709C1806.86 799.772 1805.47 792.21 1800.55 790.059C1797.43 789.396 1794.18 789.88 1791.38 791.422C1788.59 792.964 1786.45 795.46 1785.35 798.453C1781.89 805.391 1783.06 812.814 1788.06 815.034C1793.05 817.254 1799.85 813.577 1803.32 806.709Z" fill="#1B8B55"/>
<path d="M1843.28 856.381C1853.34 853.953 1860.49 846.322 1859.1 839.315C1857.71 832.308 1848.49 828.562 1838.29 830.99C1828.09 833.418 1821.08 840.772 1822.33 847.709C1823.58 854.647 1833.08 858.671 1843.28 856.381Z" fill="#1B8B55"/>
<path d="M130.83 1282C126.171 1277.73 120.696 1274.44 114.735 1272.34C108.774 1270.25 102.449 1269.38 96.1425 1269.79C81.2269 1270.55 69.7107 1277.97 70.4044 1285.81C71.0982 1293.65 86.2913 1300.1 88.9275 1308.08C91.5638 1316.06 89.4825 1328.89 97.1831 1336.46C104.884 1344.02 125.349 1325.01 131.524 1313.49C137.698 1301.98 139.433 1291.92 130.83 1282Z" fill="#1B8B55"/>
<path d="M164.685 1323.41C165.934 1318 160.661 1312.59 152.891 1311.34C145.121 1310.09 137.976 1313.35 136.796 1318.7C135.617 1324.04 140.751 1329.52 148.451 1330.84C151.598 1331.71 154.951 1331.44 157.92 1330.08C160.89 1328.72 163.285 1326.36 164.685 1323.41Z" fill="#1B8B55"/>
<path d="M131.663 1271.45C136.519 1276.66 146.717 1275.2 154.14 1267.91C161.563 1260.63 163.783 1250.78 158.858 1245.71C153.932 1240.65 144.011 1242.31 136.519 1249.46C129.026 1256.61 126.806 1266.32 131.663 1271.45Z" fill="#1B8B55"/>
<path d="M122.574 1253.55C125.835 1246.62 124.101 1238.98 119.106 1237.04C114.111 1235.1 107.451 1238.98 104.259 1245.99C101.068 1253 102.525 1260.42 107.589 1262.5C112.654 1264.58 119.314 1260.56 122.574 1253.55Z" fill="#1B8B55"/>
<path d="M164.407 1301.7C174.328 1298.86 181.127 1290.95 179.531 1283.94C177.936 1276.93 168.501 1273.67 158.719 1276.45C148.937 1279.22 141.999 1286.92 143.456 1293.79C144.913 1300.66 154.279 1304.34 164.407 1301.7Z" fill="#1B8B55"/>
<path d="M1103.61 944.973C1101.85 951.042 1101.34 957.401 1102.11 963.671C1102.87 969.941 1104.89 975.993 1108.05 981.464C1115.4 994.507 1127.19 1001.51 1133.85 997.351C1140.51 993.189 1139.68 976.539 1145.58 970.85C1151.47 965.161 1164.24 961.068 1167.36 950.939C1170.48 940.811 1144.61 930.751 1131.49 930.127C1118.38 929.503 1108.6 932.833 1103.61 944.973Z" fill="#1B8B55" fill-opacity="0.5"/>
<path d="M1125.6 896.272C1120.26 897.521 1117.76 904.666 1120.05 912.159C1122.34 919.651 1128.44 924.577 1133.92 923.328C1139.4 922.08 1141.83 914.934 1139.54 907.511C1137.25 900.088 1131.01 894.954 1125.6 896.272Z" fill="#1B8B55" fill-opacity="0.5"/>
<path d="M1093.82 948.927C1096.32 941.99 1090.42 933.804 1080.64 930.335C1070.86 926.866 1061.01 929.364 1058.65 936.024C1056.29 942.684 1062.19 950.87 1071.9 954.339C1081.61 957.807 1091.33 955.587 1093.82 948.927Z" fill="#1B8B55" fill-opacity="0.5"/>
<path d="M1081.82 965.023C1074.12 965.023 1067.95 970.156 1068.5 975.429C1069.06 980.701 1075.44 985.072 1083.21 984.795C1090.98 984.517 1097.08 979.938 1096.46 974.458C1095.84 968.977 1089.52 964.814 1081.82 965.023Z" fill="#1B8B55" fill-opacity="0.5"/>
<path d="M1106.31 906.193C1099.37 898.492 1089.18 895.925 1083.7 900.504C1078.22 905.083 1079.39 914.934 1086.26 922.565C1093.13 930.196 1103.12 932.971 1108.6 928.531C1114.08 924.091 1113.11 914.032 1106.31 906.193Z" fill="#1B8B55" fill-opacity="0.5"/>
<path d="M1209.75 1271.94C1211.42 1278.02 1214.31 1283.71 1218.23 1288.66C1222.15 1293.6 1227.03 1297.71 1232.57 1300.73C1245.69 1307.67 1259.42 1307.67 1262.96 1300.73C1266.5 1293.79 1257.13 1279.92 1259.08 1272.01C1261.02 1264.1 1269.83 1253.9 1267.19 1243.63C1264.56 1233.37 1237.29 1238.29 1225.57 1244.81C1213.84 1251.33 1207.46 1258.62 1209.75 1271.94Z" fill="#1B8B55" fill-opacity="0.5"/>
<path d="M1202.81 1218.52C1198.93 1222.4 1200.52 1229.76 1206.35 1234.96C1208.55 1237.35 1211.51 1238.9 1214.73 1239.33C1217.95 1239.76 1221.22 1239.05 1223.97 1237.32C1227.86 1233.43 1226.33 1226.01 1220.5 1220.88C1218.3 1218.47 1215.32 1216.91 1212.09 1216.48C1208.85 1216.04 1205.57 1216.77 1202.81 1218.52Z" fill="#1B8B55" fill-opacity="0.5"/>
<path d="M1203.16 1280.05C1201.84 1273.12 1192.41 1268.89 1182.35 1271.11C1172.29 1273.33 1165.14 1280.47 1166.6 1287.41C1168.06 1294.35 1177.35 1298.16 1187.41 1296.08C1197.47 1294 1204.55 1286.99 1203.16 1280.05Z" fill="#1B8B55" fill-opacity="0.5"/>
<path d="M1201.36 1300.03C1194.9 1304.2 1192.27 1311.55 1195.46 1315.85C1197.87 1317.96 1200.96 1319.11 1204.17 1319.11C1207.37 1319.11 1210.46 1317.96 1212.87 1315.85C1219.25 1311.62 1221.96 1304.54 1218.77 1300.1C1216.38 1297.95 1213.29 1296.75 1210.08 1296.74C1206.86 1296.72 1203.76 1297.9 1201.36 1300.03Z" fill="#1B8B55" fill-opacity="0.5"/>
<path d="M1191.5 1237.25C1181.58 1234.34 1171.59 1237.25 1169.24 1244.19C1166.88 1251.13 1173.12 1258.83 1183.11 1261.74C1193.1 1264.65 1202.88 1261.74 1205.31 1255.15C1207.74 1248.56 1201.43 1240.16 1191.5 1237.25Z" fill="#1B8B55" fill-opacity="0.5"/>
<path d="M139.779 1008.8C146.134 1009.11 152.486 1008.13 158.45 1005.91C164.413 1003.69 169.863 1000.29 174.467 995.894C185.428 985.696 189.521 972.584 183.971 967.104C178.421 961.623 162.604 966.271 155.458 961.901C148.312 957.53 141.583 946.083 130.969 945.389C120.354 944.696 116.677 972.237 119.314 985.072C121.95 997.906 126.806 1006.72 139.779 1008.8Z" fill="#1B8B55" fill-opacity="0.5"/>
<path d="M87.2625 998.739C89.76 1003.66 97.2525 1004.43 103.982 1000.47C106.994 999.195 109.438 996.863 110.855 993.913C112.273 990.963 112.567 987.598 111.682 984.448C109.185 979.522 101.692 978.689 94.9631 982.644C91.9918 983.993 89.591 986.346 88.1827 989.289C86.7743 992.233 86.4485 995.579 87.2625 998.739Z" fill="#1B8B55" fill-opacity="0.5"/>
<path d="M145.884 1017.4C138.947 1016.5 132.009 1024.34 130.899 1034.54C129.789 1044.73 134.576 1053.82 141.583 1054.59C148.59 1055.35 155.458 1047.65 156.291 1037.38C157.123 1027.11 152.961 1018.23 145.884 1017.4Z" fill="#1B8B55" fill-opacity="0.5"/>
<path d="M164.338 1025.31C166.35 1032.73 172.524 1037.45 177.589 1035.79C180.36 1034.19 182.457 1031.65 183.491 1028.62C184.525 1025.6 184.424 1022.3 183.208 1019.34C181.196 1011.92 175.369 1007.2 170.096 1008.8C167.284 1010.37 165.146 1012.92 164.085 1015.96C163.024 1019 163.114 1022.33 164.338 1025.31Z" fill="#1B8B55" fill-opacity="0.5"/>
<path d="M101.415 1015.25C95.5875 1023.85 95.4487 1034.26 101.415 1038.56C107.381 1042.86 116.469 1039.39 122.227 1030.93C127.986 1022.47 128.402 1012.13 122.852 1007.83C117.302 1003.53 107.451 1006.72 101.415 1015.25Z" fill="#1B8B55" fill-opacity="0.5"/>
<path d="M1484.2 1025.73C1478.17 1023.81 1471.83 1023.13 1465.54 1023.71C1459.25 1024.3 1453.14 1026.14 1447.57 1029.12C1434.32 1036.06 1426.76 1047.72 1430.92 1054.45C1435.08 1061.18 1451.24 1060.9 1457.07 1066.93C1462.9 1072.97 1466.3 1085.87 1476.36 1089.27C1486.42 1092.67 1497.17 1067.14 1497.93 1054.1C1498.7 1041.06 1496.13 1031.14 1484.2 1025.73Z" fill="#1B8B55" fill-opacity="0.5"/>
<path d="M1532.2 1049.24C1531.09 1043.83 1524.02 1041.13 1516.53 1043.21C1509.03 1045.29 1503.76 1051.26 1504.94 1056.67C1506.12 1062.08 1513.06 1064.78 1520.62 1062.77C1528.18 1060.76 1533.31 1054.66 1532.2 1049.24Z" fill="#1B8B55" fill-opacity="0.5"/>
<path d="M1480.31 1015.87C1486.9 1018.51 1495.51 1012.96 1499.25 1003.25C1503 993.536 1500.85 983.615 1494.26 981.048C1487.67 978.482 1479.34 984.17 1475.53 993.813C1471.71 1003.46 1473.93 1013.17 1480.31 1015.87Z" fill="#1B8B55" fill-opacity="0.5"/>
<path d="M1464.77 1003.39C1464.77 995.686 1460.06 989.512 1454.78 989.512C1449.51 989.512 1444.93 996.449 1445 1003.87C1445.07 1011.3 1449.44 1017.75 1454.92 1017.75C1460.4 1017.75 1464.77 1011.09 1464.77 1003.39Z" fill="#1B8B55" fill-opacity="0.5"/>
<path d="M1522.91 1029.61C1530.75 1022.67 1533.59 1012.82 1529.22 1007.2C1524.85 1001.58 1514.93 1002.42 1507.09 1009.08C1499.25 1015.74 1496.2 1025.59 1500.15 1031.28C1504.11 1036.96 1515 1036.06 1522.91 1029.61Z" fill="#1B8B55" fill-opacity="0.5"/>
<path d="M455.713 823.775C450.192 826.837 445.348 830.984 441.473 835.968C437.598 840.952 434.772 846.669 433.166 852.774C429.212 867.204 432.611 880.524 440.104 882.258C447.596 883.993 458.696 871.783 467.091 871.713C475.485 871.644 487.209 877.888 496.575 872.893C505.941 867.898 494.633 842.576 485.614 833.072C476.595 823.567 467.784 818.711 455.713 823.775Z" fill="#1B8B55" fill-opacity="0.5"/>
<path d="M505.663 804.697C500.946 801.852 494.147 805.113 490.539 812.051C488.729 814.752 487.925 818.002 488.268 821.236C488.61 824.469 490.077 827.479 492.413 829.741C497.13 832.586 503.929 829.325 507.606 822.804C509.52 820.059 510.378 816.714 510.021 813.387C509.664 810.06 508.116 806.973 505.663 804.697Z" fill="#1B8B55" fill-opacity="0.5"/>
<path d="M446.001 819.682C452.452 816.699 454.256 806.57 449.677 797.205C445.099 787.839 436.496 782.636 430.114 785.688C423.731 788.741 422.205 798.731 426.645 808.027C431.085 817.323 439.687 822.665 446.001 819.682Z" fill="#1B8B55" fill-opacity="0.5"/>
<path d="M425.812 822.596C420.262 817.323 412.492 816.56 409.093 820.653C407.557 823.455 407.098 826.721 407.8 829.838C408.503 832.955 410.319 835.708 412.909 837.581C418.528 842.853 426.021 843.755 429.559 839.662C431.141 836.854 431.633 833.562 430.942 830.414C430.251 827.266 428.425 824.483 425.812 822.596Z" fill="#1B8B55" fill-opacity="0.5"/>
<path d="M484.989 798.106C485.475 787.769 480.064 778.82 472.918 778.196C465.773 777.571 459.668 785.133 459.043 795.678C458.419 806.223 463.691 814.895 470.698 815.589C477.705 816.283 484.296 808.513 484.989 798.106Z" fill="#1B8B55" fill-opacity="0.5"/>
<path d="M1471.36 432.5C1477.46 430.84 1483.17 427.969 1488.14 424.06C1493.11 420.151 1497.24 415.283 1500.29 409.745C1507.58 396.703 1507.23 382.966 1500.29 379.428C1493.35 375.89 1479.48 385.117 1471.57 383.175C1463.66 381.232 1453.46 372.283 1443.2 374.919C1432.93 377.555 1437.79 404.82 1444.24 416.544C1450.69 428.268 1458.39 434.443 1471.36 432.5Z" fill="#1B8B55" fill-opacity="0.5"/>
<path d="M1418.29 438.952C1422.18 442.837 1429.6 441.31 1434.8 435.483C1437.2 433.287 1438.74 430.32 1439.17 427.1C1439.61 423.88 1438.89 420.61 1437.16 417.862C1433.28 413.977 1425.92 415.433 1420.72 421.261C1418.3 423.452 1416.73 426.428 1416.28 429.664C1415.84 432.9 1416.55 436.189 1418.29 438.952Z" fill="#1B8B55" fill-opacity="0.5"/>
<path d="M1479.83 438.813C1472.89 440.131 1468.66 449.566 1470.81 459.625C1472.96 469.685 1480.1 476.969 1487.04 475.512C1493.98 474.055 1497.86 464.759 1495.85 454.7C1493.84 444.64 1486.83 437.495 1479.83 438.813Z" fill="#1B8B55" fill-opacity="0.5"/>
<path d="M1499.81 440.756C1503.97 447.207 1511.32 449.844 1515.62 446.652C1517.75 444.264 1518.92 441.178 1518.92 437.981C1518.92 434.783 1517.75 431.697 1515.62 429.309C1511.46 422.857 1504.39 420.151 1499.95 423.273C1497.79 425.667 1496.59 428.767 1496.56 431.988C1496.54 435.209 1497.69 438.328 1499.81 440.756Z" fill="#1B8B55" fill-opacity="0.5"/>
<path d="M1436.81 450.329C1433.83 460.25 1436.81 470.24 1443.75 472.598C1450.69 474.957 1458.32 468.783 1461.3 458.723C1464.29 448.664 1461.3 438.952 1454.78 436.523C1448.26 434.095 1440.01 440.408 1436.81 450.329Z" fill="#1B8B55" fill-opacity="0.5"/>
<path d="M793.5 134.187C799.395 131.898 804.765 128.437 809.284 124.013C813.804 119.589 817.379 114.295 819.793 108.449C825.69 94.5743 824.094 81.0462 816.74 78.2712C809.387 75.4962 796.899 86.1799 788.574 85.2087C780.249 84.2374 769.427 76.3287 759.506 80.0055C749.586 83.6824 757.356 110.322 764.987 121.006C772.618 131.69 780.666 137.656 793.5 134.187Z" fill="#1B8B55" fill-opacity="0.5"/>
<path d="M741.261 146.397C745.562 149.866 752.707 147.507 757.217 141.125C759.432 138.741 760.709 135.636 760.811 132.384C760.913 129.131 759.834 125.952 757.772 123.434C753.471 119.896 746.256 122.185 741.746 128.568C739.583 131.009 738.348 134.134 738.259 137.394C738.17 140.655 739.233 143.842 741.261 146.397Z" fill="#1B8B55" fill-opacity="0.5"/>
<path d="M802.38 139.599C795.442 141.749 792.39 151.531 795.442 161.382C798.495 171.234 806.612 177.616 813.341 175.257C820.071 172.899 822.915 163.464 819.793 153.612C816.671 143.761 809.179 137.517 802.38 139.599Z" fill="#1B8B55" fill-opacity="0.5"/>
<path d="M822.499 139.391C827.286 145.357 834.917 147.23 838.802 143.623C840.722 141.054 841.635 137.87 841.366 134.674C841.098 131.478 839.667 128.491 837.345 126.279C832.489 120.313 825.204 118.37 821.111 121.978C819.148 124.538 818.203 127.735 818.459 130.951C818.715 134.167 820.155 137.174 822.499 139.391Z" fill="#1B8B55" fill-opacity="0.5"/>
<path d="M760.824 155.694C759.021 165.892 763.114 175.466 770.051 177.131C776.989 178.796 783.926 171.789 786.077 161.66C788.227 151.531 784.065 141.958 777.197 140.293C770.329 138.628 762.975 145.496 760.824 155.694Z" fill="#1B8B55" fill-opacity="0.5"/>
<path d="M466.119 1207.07C462.767 1212.42 460.529 1218.39 459.54 1224.63C458.55 1230.86 458.83 1237.23 460.361 1243.35C463.83 1257.92 473.265 1267.91 481.174 1265.76C489.082 1263.61 492.412 1247.59 499.697 1243.49C506.981 1239.4 520.509 1239.19 526.129 1230.31C531.748 1221.43 509.756 1204.64 497.269 1200.69C484.781 1196.73 474.375 1196.8 466.119 1207.07Z" fill="#1B8B55"/>
<path d="M500.668 1166.28C495.187 1166.28 490.817 1172.18 490.956 1180.15C491.094 1188.13 495.604 1194.45 501.154 1194.72C506.704 1195 511.074 1188.83 510.936 1180.85C510.797 1172.87 506.218 1166.49 500.668 1166.28Z" fill="#1B8B55"/>
<path d="M455.644 1208.18C459.876 1202.42 456.546 1192.71 448.012 1186.68C439.479 1180.64 429.42 1180.36 425.327 1186.05C421.234 1191.74 424.703 1201.31 433.097 1207.35C441.491 1213.39 451.412 1213.87 455.644 1208.18Z" fill="#1B8B55"/>
<path d="M439.688 1220.32C432.264 1218.38 425.119 1221.5 424.078 1226.71C423.038 1231.91 428.102 1237.87 435.594 1239.68C443.087 1241.48 450.094 1238.78 451.204 1233.43C452.314 1228.09 447.111 1222.27 439.688 1220.32Z" fill="#1B8B55"/>
<path d="M479.37 1170.51C474.791 1161.21 465.495 1155.94 459.251 1158.79C453.007 1161.63 451.065 1171.48 455.644 1180.78C460.222 1190.07 468.964 1195.35 475.416 1192.64C481.867 1189.94 483.81 1179.95 479.37 1170.51Z" fill="#1B8B55"/>
<path d="M1479.06 135.09C1484.92 137.46 1491.19 138.627 1497.51 138.52C1503.83 138.412 1510.06 137.033 1515.83 134.465C1529.71 128.499 1537.82 117.468 1534.36 110.461C1530.89 103.455 1514.51 102.553 1509.24 96.0314C1503.97 89.5101 1501.4 76.4676 1491.69 72.3051C1481.98 68.1426 1469.28 93.1176 1467.48 105.813C1465.67 118.509 1467.55 128.776 1479.06 135.09Z" fill="#1B8B55"/>
<path d="M1432.93 108.102C1433.69 113.583 1440.49 116.774 1448.12 115.04C1455.75 113.305 1461.44 108.102 1460.75 102.483C1460.06 96.8635 1453.26 93.6723 1445.56 95.5454C1437.86 97.4185 1432.24 102.622 1432.93 108.102Z" fill="#1B8B55"/>
<path d="M1481.98 145.218C1475.6 142.027 1466.58 146.952 1462.14 156.387C1457.7 165.822 1459.08 175.812 1465.47 178.865C1471.85 181.917 1480.59 176.853 1485.1 167.557C1489.61 158.26 1488.36 148.409 1481.98 145.218Z" fill="#1B8B55"/>
<path d="M1496.75 158.885C1496.13 166.516 1500.36 172.76 1505.7 172.76C1511.05 172.76 1516.04 166.863 1516.53 158.885C1517.01 150.907 1513.13 145.01 1507.72 144.594C1502.3 144.178 1497.31 151.184 1496.75 158.885Z" fill="#1B8B55"/>
<path d="M1440.77 128.29C1432.44 134.465 1428.84 144.247 1432.79 150.213C1436.75 156.179 1446.67 156.04 1454.99 150.213C1463.32 144.385 1467.06 134.604 1463.25 128.637C1459.43 122.671 1449.3 122.324 1440.77 128.29Z" fill="#1B8B55"/>
<path d="M1475.87 738.79C1472.46 733.448 1468 728.851 1462.77 725.274C1457.54 721.698 1451.63 719.216 1445.42 717.978C1430.78 714.925 1417.67 719.157 1416.49 726.927C1415.31 734.697 1428.14 744.826 1428.7 753.151C1429.25 761.476 1423.84 773.964 1429.39 782.705C1434.94 791.446 1459.57 778.82 1468.45 769.246C1477.33 759.672 1481.63 750.515 1475.87 738.79Z" fill="#1B8B55"/>
<path d="M1498 787.423C1500.57 782.497 1496.82 775.976 1489.75 772.785C1486.97 771.064 1483.66 770.417 1480.44 770.967C1477.22 771.516 1474.31 773.224 1472.26 775.768C1469.7 780.693 1473.31 787.284 1480.45 790.475C1483.27 792.108 1486.57 792.696 1489.78 792.138C1492.99 791.58 1495.9 789.911 1498 787.423Z" fill="#1B8B55"/>
<path d="M1479.34 728.801C1482.67 735.045 1493.22 736.224 1501.96 731.09C1510.7 725.956 1515.83 717.215 1512.23 710.833C1508.62 704.45 1498.7 703.895 1489.68 708.752C1480.66 713.608 1475.94 722.557 1479.34 728.801Z" fill="#1B8B55"/>
<path d="M1475.11 709.167C1480.04 703.201 1480.31 695.292 1476.01 692.309C1473.12 690.968 1469.84 690.72 1466.78 691.613C1463.71 692.506 1461.08 694.479 1459.36 697.165C1454.44 703.132 1453.95 710.694 1458.32 713.954C1461.22 715.372 1464.53 715.668 1467.63 714.784C1470.73 713.9 1473.4 711.899 1475.11 709.167Z" fill="#1B8B55"/>
<path d="M1503.28 766.332C1513.61 766.332 1522.21 760.228 1522.42 753.082C1522.63 745.936 1514.38 740.317 1504.11 740.456C1493.84 740.594 1485.24 746.283 1484.96 753.359C1484.68 760.436 1492.87 766.332 1503.28 766.332Z" fill="#1B8B55"/>
<path d="M103.982 390.875C107.442 385.585 109.798 379.65 110.906 373.427C112.015 367.204 111.854 360.821 110.434 354.661C107.173 340.092 97.9462 329.894 90.3843 331.906C82.8224 333.918 78.9374 349.666 71.4449 353.62C63.9524 357.575 50.6324 357.505 44.8049 366.316C38.9774 375.127 60.6224 392.262 73.0406 396.494C85.4587 400.726 95.6568 400.795 103.982 390.875Z" fill="#1B8B55"/>
<path d="M68.67 430.835C74.22 430.835 78.66 425.077 78.66 416.96C78.66 408.843 74.2894 402.599 68.7394 402.253C63.1894 401.906 58.7494 407.941 58.7494 415.711C58.7494 423.481 63.1894 430.488 68.67 430.835Z" fill="#1B8B55"/>
<path d="M114.527 389.765C110.226 395.384 113.278 405.166 121.464 411.34C129.651 417.515 139.918 418.278 144.081 412.381C148.243 406.484 145.052 397.119 136.796 390.944C128.541 384.77 118.828 383.937 114.527 389.765Z" fill="#1B8B55"/>
<path d="M130.691 377.833C138.114 379.914 145.329 377 146.439 371.797C147.549 366.594 142.624 360.558 135.131 358.546C127.639 356.534 120.701 359.171 119.452 364.513C118.204 369.854 123.268 375.821 130.691 377.833Z" fill="#1B8B55"/>
<path d="M90.0375 426.95C94.4775 436.315 103.427 441.727 110.018 439.021C116.608 436.315 118.412 426.464 114.041 417.168C109.671 407.872 100.999 402.322 94.4081 404.889C87.8175 407.455 85.875 417.445 90.0375 426.95Z" fill="#1B8B55"/>
<path d="M625.682 467.812C626.307 474.096 628.189 480.19 631.216 485.731C634.243 491.273 638.354 496.15 643.303 500.071C654.958 509.437 668.556 511.588 673.204 505.275C677.852 498.961 670.984 484.046 674.244 476.345C677.505 468.645 688.119 460.32 687.079 449.775C686.038 439.23 658.496 439.438 646.148 443.947C633.799 448.456 625.89 454.7 625.682 467.812Z" fill="#1B8B55"/>
<path d="M628.11 414.393C623.531 417.585 623.878 425.146 628.804 431.251C630.508 434.032 633.163 436.099 636.277 437.069C639.39 438.039 642.75 437.845 645.731 436.524C650.241 433.333 650.033 425.84 645.107 419.735C643.351 416.991 640.687 414.952 637.579 413.976C634.472 412.999 631.12 413.147 628.11 414.393Z" fill="#1B8B55"/>
<path d="M618.051 475.165C618.051 468.228 609.309 462.331 598.903 462.747C588.497 463.164 580.311 469.13 580.588 476.137C580.866 483.144 589.399 488.624 599.736 488.277C610.073 487.93 618.189 482.242 618.051 475.165Z" fill="#1B8B55"/>
<path d="M613.125 494.521C606.188 497.574 602.233 504.373 604.661 509.159C606.637 511.668 609.456 513.375 612.595 513.962C615.734 514.549 618.979 513.976 621.728 512.351C628.665 509.298 632.619 502.777 630.261 497.851C628.302 495.302 625.479 493.557 622.323 492.943C619.167 492.33 615.896 492.891 613.125 494.521Z" fill="#1B8B55"/>
<path d="M613.819 430.766C604.523 426.256 594.116 427.644 590.717 433.888C587.318 440.131 592.035 448.873 601.262 453.451C610.489 458.03 620.756 456.851 624.225 450.676C627.694 444.502 623.115 435.553 613.819 430.766Z" fill="#1B8B55"/>
<path d="M1564.53 1338.4C1568.23 1333.27 1570.86 1327.46 1572.27 1321.3C1573.67 1315.13 1573.83 1308.75 1572.72 1302.53C1570.15 1287.82 1561.48 1277.21 1553.78 1278.81C1546.08 1280.4 1541.36 1296.22 1533.8 1299.62C1526.24 1303.02 1512.99 1302.53 1506.61 1311C1500.22 1319.46 1521.1 1337.64 1533.31 1342.49C1545.52 1347.35 1555.65 1348.25 1564.53 1338.4Z" fill="#1B8B55"/>
<path d="M1527.28 1376.76C1532.76 1377.39 1537.55 1371.49 1537.89 1363.72C1538.24 1355.95 1534.22 1349.15 1528.74 1348.53C1523.26 1347.9 1518.47 1353.73 1518.05 1361.5C1517.64 1369.27 1521.94 1376 1527.28 1376.76Z" fill="#1B8B55"/>
<path d="M1575.08 1337.98C1570.43 1343.46 1573.07 1353.38 1581.18 1359.97C1589.3 1366.57 1599.29 1367.54 1603.8 1362.06C1608.31 1356.58 1605.47 1346.93 1597.49 1340.34C1589.51 1333.75 1579.66 1332.57 1575.08 1337.98Z" fill="#1B8B55"/>
<path d="M1591.8 1326.95C1599.15 1329.38 1606.51 1326.95 1607.82 1321.61C1609.14 1316.27 1604.56 1310.23 1597.21 1307.74C1589.86 1305.24 1582.71 1307.74 1581.25 1312.94C1579.8 1318.14 1584.37 1324.52 1591.8 1326.95Z" fill="#1B8B55"/>
<path d="M1548.79 1373.99C1552.74 1383.56 1561.41 1389.39 1568.14 1387.03C1574.87 1384.67 1577.09 1374.89 1573.21 1365.39C1569.32 1355.88 1560.93 1349.92 1554.27 1352.2C1547.61 1354.49 1545.04 1364.28 1548.79 1373.99Z" fill="#1B8B55"/>
<path d="M828.188 730.812C834.256 732.564 840.616 733.074 846.886 732.311C853.156 731.548 859.207 729.528 864.679 726.372C877.721 718.949 884.728 707.156 880.566 700.496C876.403 693.836 859.753 694.737 854.064 688.841C848.376 682.944 844.283 670.179 834.084 667.057C823.886 663.935 813.966 689.812 813.272 702.924C812.578 716.036 815.7 726.095 828.188 730.812Z" fill="#1B8B55"/>
<path d="M779.139 709.098C780.388 714.44 787.534 716.937 795.026 714.648C802.519 712.359 807.444 706.254 806.196 700.773C804.947 695.292 797.801 692.864 790.309 695.154C782.816 697.443 777.821 703.756 779.139 709.098Z" fill="#1B8B55"/>
<path d="M831.795 740.872C824.858 738.374 816.671 744.271 813.272 754.053C809.873 763.835 812.231 773.686 818.891 776.045C825.551 778.404 833.738 772.507 837.206 762.794C840.675 753.082 838.455 743.369 831.795 740.872Z" fill="#1B8B55"/>
<path d="M847.89 752.874C847.89 760.575 853.024 766.749 858.296 766.125C863.569 765.5 867.939 759.187 867.662 751.486C867.384 743.786 862.806 737.612 857.325 738.236C851.844 738.86 847.682 745.173 847.89 752.874Z" fill="#1B8B55"/>
<path d="M789.06 728.384C781.359 735.322 778.792 745.52 783.371 751C787.95 756.481 797.801 755.302 805.432 748.433C813.064 741.565 815.839 731.575 811.399 726.095C806.959 720.614 796.899 721.585 789.06 728.384Z" fill="#1B8B55"/>
<path d="M1798.4 497.99C1792.12 498.636 1786.03 500.548 1780.51 503.613C1774.99 506.677 1770.15 510.83 1766.28 515.82C1756.98 527.475 1754.9 541.072 1761.21 545.72C1767.52 550.368 1782.44 543.361 1790.14 546.622C1797.84 549.883 1806.24 560.497 1816.78 559.318C1827.33 558.138 1826.98 530.666 1822.4 518.317C1817.82 505.968 1811.51 498.129 1798.4 497.99Z" fill="#1B8B55"/>
<path d="M1851.82 500.14C1848.62 495.631 1841.13 495.978 1835.03 500.904C1832.31 502.68 1830.3 505.354 1829.35 508.459C1828.4 511.565 1828.56 514.906 1829.82 517.9C1833.02 522.41 1840.58 522.063 1846.61 517.207C1849.35 515.428 1851.37 512.742 1852.32 509.621C1853.27 506.5 1853.09 503.143 1851.82 500.14Z" fill="#1B8B55"/>
<path d="M1791.11 490.359C1798.05 490.359 1803.88 481.618 1803.32 471.211C1802.77 460.805 1796.94 452.619 1789.86 452.896C1782.79 453.174 1777.45 461.776 1777.86 472.113C1778.28 482.45 1783.97 490.567 1791.11 490.359Z" fill="#1B8B55"/>
<path d="M1771.69 485.294C1768.64 478.357 1761.84 474.472 1757.12 476.9C1754.61 478.875 1752.9 481.694 1752.32 484.833C1751.73 487.972 1752.3 491.217 1753.93 493.966C1757.05 500.904 1763.57 504.789 1768.5 502.43C1771.04 500.461 1772.76 497.628 1773.35 494.469C1773.94 491.31 1773.35 488.045 1771.69 485.294Z" fill="#1B8B55"/>
<path d="M1835.44 485.919C1839.95 476.622 1838.5 466.216 1832.18 462.817C1825.87 459.418 1817.2 464.274 1812.69 473.501C1808.18 482.728 1809.36 492.995 1815.53 496.464C1821.71 499.933 1830.66 494.937 1835.44 485.919Z" fill="#1B8B55"/>
<path d="M866.274 1275.89C870.903 1280.24 876.361 1283.6 882.322 1285.78C888.283 1287.96 894.623 1288.92 900.962 1288.59C915.877 1288.03 927.532 1280.75 926.908 1272.98C926.284 1265.21 911.299 1258.41 908.732 1250.43C906.165 1242.45 908.732 1229.62 900.962 1221.92C893.192 1214.22 872.657 1232.88 866.274 1244.4C859.892 1255.91 857.811 1265.83 866.274 1275.89Z" fill="#1B8B55"/>
<path d="M833.044 1233.92C831.726 1239.33 836.929 1244.81 844.629 1246.2C847.717 1247.19 851.06 1247.04 854.043 1245.76C857.025 1244.49 859.448 1242.18 860.863 1239.26C862.181 1233.92 857.048 1228.37 849.416 1226.98C841.785 1225.59 834.362 1228.58 833.044 1233.92Z" fill="#1B8B55"/>
<path d="M865.303 1286.37C860.516 1281.09 850.318 1282.41 842.756 1289.56C835.194 1296.7 832.836 1306.56 837.692 1311.69C842.548 1316.82 852.538 1315.37 860.031 1308.29C867.523 1301.21 869.812 1291.64 865.303 1286.37Z" fill="#1B8B55"/>
<path d="M874.114 1304.4C870.714 1311.34 872.31 1318.97 877.236 1320.99C880.379 1321.61 883.64 1321.06 886.411 1319.45C889.182 1317.84 891.272 1315.28 892.29 1312.24C895.551 1305.31 894.232 1297.88 889.237 1295.73C884.242 1293.58 877.444 1297.47 874.114 1304.4Z" fill="#1B8B55"/>
<path d="M832.975 1255.63C822.985 1258.34 816.116 1266.18 817.573 1273.12C819.03 1280.05 828.465 1283.59 838.386 1280.96C848.306 1278.32 855.313 1270.76 853.926 1263.89C852.538 1257.02 843.173 1253.21 832.975 1255.63Z" fill="#1B8B55"/>
<path d="M121.464 111.571C127.636 112.886 134.008 112.95 140.205 111.758C146.401 110.567 152.296 108.144 157.539 104.634C170.027 96.3781 176.201 83.8212 171.414 77.7162C166.628 71.6112 150.602 73.4149 144.15 67.9343C137.698 62.4537 133.119 49.9662 122.783 47.6074C112.446 45.2487 104.259 71.6806 104.745 84.7924C105.231 97.9043 109.046 107.409 121.464 111.571Z" fill="#1B8B55"/>
<path d="M71.3062 92.9788C72.9712 98.2513 80.2556 99.9163 87.54 97.4188C94.8243 94.9213 99.4031 88.1919 97.7381 82.9194C96.0731 77.6469 88.8581 75.5657 81.5737 78.3407C74.2893 81.1157 69.7106 87.7063 71.3062 92.9788Z" fill="#1B8B55"/>
<path d="M126.112 121.076C119.175 119.064 111.197 125.446 108.491 135.506C105.786 145.565 108.491 155.139 115.429 157.081C122.366 159.024 129.997 152.503 132.772 142.513C135.547 132.523 132.911 123.088 126.112 121.076Z" fill="#1B8B55"/>
<path d="M142.971 131.967C143.734 139.599 149.006 145.287 154.279 144.455C157.282 143.354 159.782 141.199 161.314 138.391C162.846 135.583 163.304 132.313 162.604 129.192C161.771 121.561 156.776 115.872 151.365 116.636C145.954 117.399 142.207 124.267 142.971 131.967Z" fill="#1B8B55"/>
<path d="M82.545 111.571C75.6075 119.064 73.5262 129.331 78.4519 134.535C83.3775 139.738 93.1594 137.795 100.305 130.441C107.451 123.088 109.462 112.89 104.745 107.756C100.027 102.622 89.9681 104.218 82.545 111.571Z" fill="#1B8B55"/>
<path d="M433.513 175.812C431.889 181.929 431.525 188.311 432.443 194.572C433.361 200.833 435.543 206.842 438.855 212.234C446.486 225.069 458.488 231.798 465.009 227.497C471.531 223.196 470.282 206.684 476.109 200.718C481.937 194.752 494.494 190.451 497.338 179.906C500.182 169.361 474.375 160.55 460.986 160.481C447.596 160.411 438.231 163.533 433.513 175.812Z" fill="#1B8B55"/>
<path d="M454.326 126.556C448.984 127.944 446.694 135.159 449.122 142.582C451.551 150.005 457.864 154.792 462.997 153.404C468.131 152.017 470.698 144.871 468.27 137.448C465.842 130.025 459.667 125.099 454.326 126.556Z" fill="#1B8B55"/>
<path d="M423.801 179.975C426.09 173.038 420.054 164.921 409.926 161.73C399.797 158.538 390.293 161.175 388.073 167.904C385.853 174.633 392.027 182.681 401.948 185.872C411.868 189.063 421.511 186.705 423.801 179.975Z" fill="#1B8B55"/>
<path d="M411.937 196.625C404.306 196.972 398.062 202.036 398.964 207.378C399.983 210.412 402.076 212.968 404.849 214.565C407.622 216.163 410.883 216.691 414.019 216.05C421.719 215.634 427.894 210.916 427.061 205.436C426.229 199.955 419.916 195.931 411.937 196.625Z" fill="#1B8B55"/>
<path d="M435.248 136.893C428.31 129.401 417.904 127.111 412.493 131.759C407.081 136.407 408.538 146.328 415.614 153.821C422.691 161.313 432.681 163.741 438.092 159.232C443.503 154.722 442.254 144.594 435.248 136.893Z" fill="#1B8B55"/>
<path d="M1823.44 1176.06C1817.9 1179.09 1813.03 1183.2 1809.11 1188.14C1805.19 1193.09 1802.3 1198.77 1800.62 1204.85C1796.52 1219.21 1799.85 1232.6 1807.55 1234.41C1815.26 1236.21 1826.22 1224.07 1834.61 1224.14C1843.01 1224.21 1854.73 1230.45 1864.1 1225.53C1873.46 1220.6 1862.43 1195.21 1853.55 1185.64C1844.67 1176.06 1835.65 1171.14 1823.44 1176.06Z" fill="#1B8B55"/>
<path d="M1873.6 1157.47C1868.88 1154.56 1862.08 1157.82 1858.41 1164.41C1856.5 1167.05 1855.63 1170.3 1855.94 1173.54C1856.26 1176.79 1857.76 1179.81 1860.14 1182.03C1864.79 1184.94 1871.66 1182.03 1875.4 1175.09C1877.2 1172.4 1878.01 1169.17 1877.68 1165.95C1877.35 1162.74 1875.91 1159.74 1873.6 1157.47Z" fill="#1B8B55"/>
<path d="M1813.8 1171.83C1820.25 1168.92 1822.19 1158.86 1817.68 1149.42C1813.17 1139.99 1804.64 1134.78 1798.26 1137.77C1791.88 1140.75 1790.21 1150.74 1794.51 1160.11C1798.81 1169.47 1807.28 1174.81 1813.8 1171.83Z" fill="#1B8B55"/>
<path d="M1793.89 1174.81C1788.34 1169.47 1780.57 1168.64 1777.17 1172.73C1775.6 1175.51 1775.09 1178.76 1775.76 1181.88C1776.42 1185 1778.21 1187.77 1780.78 1189.66C1786.4 1195 1793.89 1195.97 1797.5 1191.88C1799.09 1189.09 1799.61 1185.81 1798.94 1182.66C1798.28 1179.51 1796.48 1176.72 1793.89 1174.81Z" fill="#1B8B55"/>
<path d="M1852.99 1150.67C1853.55 1140.33 1848.28 1131.31 1841.13 1130.62C1833.99 1129.93 1827.81 1137.56 1827.26 1147.96C1826.7 1158.37 1831.7 1167.25 1838.7 1168.01C1845.71 1168.78 1852.16 1160.94 1852.99 1150.67Z" fill="#1B8B55"/>
<path d="M940.089 402.391C935.84 397.704 930.688 393.924 924.942 391.278C919.196 388.631 912.974 387.173 906.65 386.99C891.735 386.366 879.525 392.748 879.594 400.865C879.664 408.982 894.024 416.544 895.967 424.73C897.909 432.916 894.51 445.542 901.517 453.729C908.524 461.915 930.585 444.987 937.8 434.026C945.015 423.065 947.721 413.006 940.089 402.391Z" fill="#1B8B55"/>
<path d="M969.921 446.722C971.655 441.449 966.938 435.622 959.376 433.61C956.338 432.463 952.994 432.418 949.926 433.483C946.858 434.548 944.261 436.655 942.587 439.437C940.853 444.71 945.57 450.607 953.063 452.619C956.117 453.778 959.483 453.822 962.566 452.743C965.65 451.664 968.255 449.532 969.921 446.722Z" fill="#1B8B55"/>
<path d="M941.824 391.985C946.194 397.604 956.462 397.049 964.579 390.528C972.696 384.007 975.748 374.294 971.516 368.814C967.284 363.333 957.017 364.027 948.969 370.479C940.922 376.931 937.453 386.366 941.824 391.985Z" fill="#1B8B55"/>
<path d="M934.47 373.253C938.355 366.663 937.384 358.893 932.597 356.534C929.511 355.658 926.211 355.944 923.322 357.338C920.432 358.731 918.154 361.136 916.918 364.096C913.103 371.033 913.866 377.971 918.722 380.815C921.817 381.71 925.134 381.434 928.039 380.039C930.943 378.644 933.233 376.229 934.47 373.253Z" fill="#1B8B55"/>
<path d="M971.655 425.077C981.853 423.204 989.346 415.919 988.375 408.843C987.403 401.767 978.385 397.535 968.256 399.408C958.127 401.281 950.565 408.288 951.398 415.225C952.23 422.163 961.388 426.742 971.655 425.077Z" fill="#1B8B55"/>
<path d="M1161.19 194.197C1156.57 198.519 1152.88 203.725 1150.31 209.506C1147.75 215.286 1146.38 221.522 1146.27 227.844C1145.93 242.759 1152.45 254.9 1160.15 254.761C1167.85 254.622 1175.69 240.054 1183.8 237.972C1191.92 235.891 1204.62 239.152 1212.66 232.006C1220.71 224.86 1203.51 203.077 1192.48 196C1181.45 188.924 1171.46 186.427 1161.19 194.197Z" fill="#1B8B55"/>
<path d="M1204.82 163.741C1199.55 162.076 1193.79 166.933 1191.85 174.494C1190.68 177.538 1190.65 180.904 1191.77 183.967C1192.9 187.03 1195.09 189.58 1197.96 191.144C1203.23 192.809 1209.06 188.023 1210.93 180.461C1212.12 177.408 1212.16 174.026 1211.04 170.948C1209.91 167.87 1207.7 165.307 1204.82 163.741Z" fill="#1B8B55"/>
<path d="M1150.5 192.601C1156.05 188.161 1155.36 177.894 1148.7 169.916C1142.04 161.937 1132.33 158.954 1126.92 163.464C1121.5 167.973 1122.34 178.032 1128.93 186.011C1135.52 193.989 1144.95 197.041 1150.5 192.601Z" fill="#1B8B55"/>
<path d="M1131.91 200.233C1124.97 196.486 1117.48 197.596 1115.19 202.383C1114.38 205.475 1114.72 208.756 1116.15 211.615C1117.58 214.473 1120 216.715 1122.96 217.923C1129.9 221.6 1136.84 220.768 1139.68 215.911C1142.53 211.055 1138.64 203.979 1131.91 200.233Z" fill="#1B8B55"/>
<path d="M1183.18 162.284C1181.1 152.156 1173.74 144.732 1166.67 145.842C1159.59 146.952 1155.57 155.971 1157.51 166.1C1159.45 176.229 1166.67 183.652 1173.61 182.68C1180.54 181.709 1184.98 172.552 1183.18 162.284Z" fill="#1B8B55"/>
</g>
</svg>
